<?xml version="1.0" ?><svg id="Layer_1" style="enable-background:new 0 0 48 48;" version="1.1" viewBox="0 0 48 48" xml:space="preserve" xmlns="http://www.w3.org/2000/svg" xmlns:xlink="http://www.w3.org/1999/xlink"><g><path d="M35.7,9.5c-1.1-0.3-3.6-1.1-6.6-2.1l4.1-5.7l-6.7-1.2L17.8,4c-3.1-0.9-5.7-1.6-6.9-1.8C3.1,0.8,0.6,6.5,0.5,6.6L0.3,7   l0.3,0.5c0.1,0.1,1.3,3.1,6.8,4.1l0,0c-4.3,3.9-6.8,9.4-6.8,15.3c0,11.4,9.3,20.6,20.6,20.6s20.6-9.3,20.6-20.6   c0-3.3-0.8-6.6-2.3-9.5l8.2-11.3l-7.2-1.3L35.7,9.5z M26.7,2.6l3,0.5l-2.6,3.7c-2-0.6-4.1-1.3-6.2-1.9L26.7,2.6z M11.7,12.4   l1.2,2.1l-0.3-0.1c-0.3-0.1-0.6-0.1-0.9-0.2c-0.5-0.2-0.9-0.5-1.3-0.8l-1-0.7c0.2-0.2,0.5-0.4,0.7-0.5L11.7,12.4z M21.7,14.2   l1.3,7.9l-4-0.7l-4.8-8.5L21.7,14.2z M20.4,27.2c0.2,0.7,0.5,1.3,0.8,1.9c0.4,0.8,0.8,1.4,0.7,2c-0.1,0.9-1.3,1.5-1.8,1.7   c-0.3,0.1-0.7,0.3-1,0.4c-0.8,0.3-1.7,0.6-2.5,1.2c-1,0.7-1.6,1.7-2.2,2.7c-0.1,0.1-0.2,0.3-0.3,0.4c0,0-0.1,0-0.3,0.1   c-0.5,0.1-1.1,0-1.8,0c-0.6,0-1.3-0.1-2,0C9.1,37.6,8,38.2,7.4,39c0,0.1-0.1,0.1-0.1,0.2C7.2,39.1,7.1,39,7,38.9l2.9-3.6   c1.6-2,1.1-3.3,0.6-3.9c-0.1-0.1-0.3-0.3-0.4-0.4c-0.1,0-0.1-0.1-0.2-0.1c-0.1-0.1,0-0.7,0.4-1.3c0.6-0.8,1.4-2.1,0.9-3.4   c-0.3-0.8-1-1.3-1.6-1.6c-0.3-0.2-0.5-0.3-0.7-0.5c-0.6-0.6-0.4-1.9-0.1-3.2c0.2-0.9,1-3.6-0.8-5.1c-0.1-0.1-0.3-0.2-0.4-0.3   c-0.2-0.1-0.5-0.4-0.5-0.5c0,0.1,0.1,0.2,0,0.3L6.9,15c0.3-0.3,0.6-0.7,0.9-1l1.3,1c0.5,0.4,1.1,0.8,1.8,1.1   c0.4,0.2,0.8,0.2,1.2,0.3l1.9,0.4l0-0.1l3.7,6.5l2.9,0.5C20.4,24.7,20.1,26,20.4,27.2z M5.9,16.4c0.2,0.2,0.4,0.4,0.6,0.5   C6.6,17,6.7,17,6.8,17.1c0.5,0.5,0.6,1.5,0.2,3.1c-0.3,1.2-0.9,3.6,0.5,5.1c0.3,0.3,0.7,0.6,1.1,0.8c0.4,0.2,0.7,0.4,0.8,0.6   c0.1,0.4-0.3,1.1-0.7,1.6c-1,1.4-1.1,2.8-0.3,3.7c0.1,0.1,0.3,0.3,0.4,0.4c0.1,0,0.1,0.1,0.2,0.1c0.1,0.1,0,0.6-0.6,1.4l-2.6,3.2   c-2-3-3.1-6.5-3.1-10.3C2.6,23.1,3.8,19.4,5.9,16.4z M8.8,40.7L8.8,40.7c0-0.1,0-0.3,0.2-0.5c0.3-0.4,0.9-0.7,1.4-0.7   c0.5-0.1,1,0,1.6,0c0.7,0.1,1.5,0.1,2.2,0c0.3,0,0.7-0.1,1-0.4c0.4-0.3,0.7-0.7,0.9-1c0.5-0.9,1-1.6,1.7-2.1   c0.5-0.4,1.2-0.6,1.9-0.9c0.4-0.1,0.7-0.3,1.1-0.4c1.7-0.7,2.7-1.9,3-3.2c0.2-1.3-0.4-2.3-0.9-3.3c-0.3-0.5-0.5-1-0.6-1.4   c-0.2-0.8,0-1.8,0.2-2.7l2.9,0.5l-1.7-10l12,2.2c-1.1,0.2-2.3,0.6-2.9,1.8c-0.1,0.1-0.1,0.3-0.2,0.4c-0.1,0.1-0.1,0.3-0.1,0.3   c-0.1,0.2-0.4,0.3-0.8,0.5c-0.2,0.1-0.4,0.2-0.6,0.3c-0.6,0.4-1.1,1-1.3,1.7c0,0.2,0,0.3,0,0.5c-0.2,0.2-0.5,0.3-0.8,0.5   c-0.3,0.1-0.6,0.3-0.9,0.5c-1.1,0.7-2.1,2-1.6,3.4c0.2,0.6,0.6,1,0.9,1.3c0.1,0.2,0.4,0.4,0.4,0.5c0,0.1-0.1,0.3-0.2,0.4   c-0.1,0.2-0.3,0.5-0.4,0.8c-0.6,1.5,0.3,2.9,0.8,3.6c0.4,0.6,1,1.4,1.8,1.9c0.2,0.1,0.4,0.2,0.6,0.3c0.1,0.1,0.3,0.1,0.4,0.2   c0.6,0.3,0.9,1.2,1.2,2l0.2,0.4c0.4,1.1,1,2,1.8,2.5c-3.3,3.1-7.8,5.1-12.7,5.1C16.5,45.5,12.1,43.7,8.8,40.7z M35.4,38.9   c-0.6-0.1-1.1-0.9-1.4-1.6l-0.1-0.4c-0.4-1.1-0.9-2.4-2.1-3.1c-0.2-0.1-0.4-0.2-0.6-0.3c-0.1-0.1-0.3-0.1-0.4-0.2   c-0.4-0.2-0.8-0.8-1.1-1.3c-0.4-0.6-0.8-1.3-0.6-1.7c0-0.1,0.1-0.2,0.2-0.4c0.2-0.3,0.6-0.8,0.6-1.4c0-0.9-0.6-1.5-1-2   c-0.2-0.2-0.4-0.4-0.5-0.6c-0.1-0.2,0.3-0.7,0.8-1c0.2-0.1,0.5-0.3,0.7-0.4c0.6-0.3,1.3-0.6,1.8-1.2l0.5-0.6l-0.4-0.6   c0-0.1,0.2-0.2,0.3-0.3c0.1-0.1,0.3-0.2,0.4-0.2c0.5-0.2,1.1-0.5,1.5-1.2c0.2-0.2,0.3-0.5,0.3-0.7c0-0.1,0.1-0.2,0.1-0.3   c0.4-0.7,1.5-1,3.3-0.8c1.2,2.5,1.9,5.3,1.9,8.1C39.9,31.5,38.2,35.7,35.4,38.9z M44.5,7.5l-5.8,7.8l-31-5.6C2.8,8.7,4,8,3.1,7   c0.4-0.6,1-1.5,2.2-2.2c0.5,0.8,1.5,1.8,3.1,2.3L9,5.2C8.2,4.9,7.6,4.5,7.3,4.1c0.9-0.2,2-0.2,3.3,0.1c4.2,0.8,24.8,7.4,25,7.4   l0.5,0.2l5-4.8L44.5,7.5z"/></g></svg>